<svg xmlns="http://www.w3.org/2000/svg" xmlns:xlink="http://www.w3.org/1999/xlink" viewBox="0 0 775.66 805.38"><defs><style>.cls-1{fill:#2846d7;}.cls-2{fill:#9dc1ff;}.cls-3{fill:#fdfaf5;}.cls-4{fill:#e1a9a9;}.cls-5{fill:#0c1535;}.cls-6{fill:#101940;}.cls-7{fill:#2875e4;}.cls-8{fill:#5fc77a;}.cls-19,.cls-9{fill:#3583fa;}.cls-10{fill:#fff;}.cls-11{fill:#c4d7ec;}.cls-12{fill:#f1b4bb;}.cls-13{fill:#212ca9;}.cls-14{fill:#b9e3e9;}.cls-15{fill:#da462e;}.cls-16{fill:#e65639;}.cls-17{fill:#003b63;}.cls-18{fill:url(#linear-gradient);}.cls-19{opacity:0.84;}.cls-20,.cls-21{fill:none;stroke:#fff;stroke-linecap:round;stroke-miterlimit:10;}.cls-20{stroke-width:2.07px;}.cls-21{stroke-width:2.58px;}.cls-22{fill:#d1e2fb;}.cls-23{fill:#f6ab46;}.cls-24{fill:#d8db00;}.cls-25{fill:#72ff73;}.cls-26{fill:#d5442b;}.cls-27{fill:#eac7aa;}.cls-28{fill:#c6dafd;}</style><linearGradient id="linear-gradient" x1="500.07" y1="120.01" x2="500.07" y2="155.29" gradientUnits="userSpaceOnUse"><stop offset="0" stop-color="#fff"/><stop offset="1" stop-color="#d3f3ff"/></linearGradient></defs><title>Artboard 19</title><g id="Layer_1" data-name="Layer 1"><path class="cls-1" d="M648.25,713.28c49.81-43.93,78.92-110.41,77.41-176.8-.72-31.67-11.37-67.4-40.19-80.55-24.13-11-52.73-2.17-75.75,11s-44,30.72-69.25,38.72c-56.88,18-97.09-21.8-182.49-38.33-98.11-19-199.92,13.57-261,67.6-47.74,42.2-62.79,90.52-65.19,117.33-1,11.15-.12,22.11,5.93,32,15.56,25.45,53.88,25,59.26,24.89Z"/><path class="cls-2" d="M516.41,581.55a82.64,82.64,0,0,1,33.32-8.16c5.55-.1,10.65.48,15.63,3.21,4.36,2.39,7.7,6.27,10.59,10.31,6.23,8.72,10.79,18.53,14.57,28.57a108.84,108.84,0,0,1,6.81,36.95c.24,13.88.76,43.84-17.5,54.94a30,30,0,0,1-13.91,4.12l-277.16-1.63a32.4,32.4,0,0,1,.52-14.34c2.93-10.82,11-17.26,15.31-19.81,12.78-7.52,22.93,1.25,44.45,2.81,33.35,2.41,61.35-14.86,76.65-24.3,7.46-4.6,14-10,26.95-20.81C484,607.36,492.08,594.1,516.41,581.55Z"/><path class="cls-3" d="M428.09,680.67c24-6.94,48-14.06,73-15.58a217.32,217.32,0,0,1,22.83-.13c3.84.17,3.83-5.79,0-6a213.27,213.27,0,0,0-39.61,1.86,293.43,293.43,0,0,0-35.91,7.82c-7.32,2-14.61,4.13-21.89,6.24-3.68,1.07-2.12,6.82,1.58,5.75Z"/><path class="cls-3" d="M526.8,662.77a550.74,550.74,0,0,1,15-60.29c1.14-3.67-4.62-5.24-5.75-1.58a555.34,555.34,0,0,0-15,60.29,3.05,3.05,0,0,0,2.08,3.66,3,3,0,0,0,3.67-2.08Z"/><path class="cls-3" d="M502.57,659.71c-19-2.08-37.05-11.13-56.45-7.55a3,3,0,0,0-2.08,3.66,3,3,0,0,0,3.67,2.08c9-1.65,18.09-.1,26.86,1.93,9.3,2.15,18.48,4.8,28,5.85a3,3,0,0,0,3-3,3.06,3.06,0,0,0-3-3Z"/><path class="cls-3" d="M477.72,624.27c.11-.08.88-.74.31-.25.23-.2.5-.37.75-.55.5-.37,1-.72,1.54-1.06q1.56-1,3.21-1.89c.55-.29,1.1-.57,1.67-.83l.85-.39.42-.18q-.53.23-.06,0c1.16-.45,2.32-.88,3.51-1.24a3,3,0,0,0-1.58-5.75,44.19,44.19,0,0,0-14.84,7.9,3,3,0,0,0,0,4.21,3.07,3.07,0,0,0,4.22,0Z"/><path class="cls-3" d="M305.53,681.4a66.75,66.75,0,0,1,34,1.91c3.66,1.18,5.23-4.58,1.59-5.75a73,73,0,0,0-37.18-1.91,3,3,0,0,0,1.59,5.75Z"/><path class="cls-4" d="M421.73,465.82c-.89-2.25-1.15-3.66-2.6-5.37-1.28-1.53-3.85-2.27-5.25-.85a4.36,4.36,0,0,0-.94,3.11,14.59,14.59,0,0,0,3.52,9.16c2.59,2.68,4.16,1.95,6.81,4.21,1.77,1.52,3.79,4.18,4.69,9.19l5,2,4.19-3.52a48.31,48.31,0,0,0-7.37-9.32C425.58,470.3,423.22,469.59,421.73,465.82Z"/><path class="cls-5" d="M505.6,552.24l2.16-8.78c-9.45-1.62-19.62-3-30.45-4-8.63-.81-16.89-1.3-24.72-1.55q-6.43-27-12.86-54l-29.39-1.12a268.13,268.13,0,0,0,10.82,36.06c6.59,17.42,9.88,26.12,16,31.94,9.86,9.43,25.26,10.52,56.05,12.85a15.15,15.15,0,0,0,9.75-2.43C505.69,559.18,507.27,555.2,505.6,552.24Z"/><path class="cls-4" d="M326.07,667.92a99.24,99.24,0,0,1,7.39-9q2.51,2.19,4.89,4.48a1.09,1.09,0,0,1,.33.47.94.94,0,0,1-.18.66,21.56,21.56,0,0,1-4.44,5.1c-1.15,1.08-2.48,2.22-4.06,2.16s-3-1.5-4.08-2.83"/><path class="cls-6" d="M379.43,667.63l-5.49-.69c-2.09-.55-4.28.48-6,1.84s-3.08,3.05-4.91,4.21-4.31,2-4.83,4.16a1.33,1.33,0,0,0,.15,1.17c.35.46,1,.45,1.61.4a189.48,189.48,0,0,0,21.57-3.32,1.7,1.7,0,0,0,1-.47,1.46,1.46,0,0,0,.26-.79A6.8,6.8,0,0,0,379.43,667.63Z"/><path class="cls-4" d="M376.06,662.35l-1.56,5.06a1.3,1.3,0,0,0-.07.75,1.09,1.09,0,0,0,.5.52,9,9,0,0,0,3.71,1.41,2,2,0,0,0,1.15-.1,2.26,2.26,0,0,0,.91-1.2l1.8-4.06a.94.94,0,0,0,.1-.81,1,1,0,0,0-.57-.38l-5.54-1.93"/><path class="cls-7" d="M424.57,599c-1.26-10-13.1-15.51-14.24-16-2.75-1.24-8.72-3.93-13.81-1.41-4.49,2.21-6.1,7.36-7.13,10.92-6.75,23.32-6.41,40.5-12.58,61.2-1.05,3.51-2,6.31-2.64,8l10.55,4.55c1.74-3.16,4.71-8.4,8.69-14.69,6.11-9.66,13.41-19.89,23-34.56C423.59,605.93,425.08,603.1,424.57,599Z"/><path class="cls-4" d="M508.63,534.07a67.62,67.62,0,0,0-.51-11.2,1.4,1.4,0,0,0-.36-.9,1.37,1.37,0,0,0-.87-.19l-5.25,0a1.44,1.44,0,0,0-1,.24,1.46,1.46,0,0,0-.3,1.2l.52,10.48,6.4-1.45"/><path class="cls-4" d="M504.86,481.55c7.74-1.94,14.38,2.74,15,3.23.42.3,7,5.11,7.63,13a23.13,23.13,0,0,1-.47,6.26,40.18,40.18,0,0,1-3.89,11,20.74,20.74,0,0,1-6.28,7.6c-5.34,3.66-13,3-18.19-.79-7.6-5.54-8.31-14.68-8.41-16.78C489.9,496,494.81,484.08,504.86,481.55Z"/><path class="cls-8" d="M492.26,464.81c2.59-4.13,7.24-6.58,11.95-7.87,8.89-2.44,19.83-.6,24.81,7.16,2.52,3.92,3.19,8.8,5.65,12.75,1.54,2.48,3.73,4.49,5.36,6.91A19,19,0,0,1,542.64,499c-.69,2.65-2,5.18-2.08,7.91s.92,5.27,1.26,7.94a12.46,12.46,0,0,1-2.18,9.1,8.92,8.92,0,0,1-8.43,3.5c-3.67-.7-6.4-4.15-7-7.83s.56-7.48,2.44-10.7c-1.36-4.07-3.81-8.93-8.49-11-4.29-1.91-6.82.31-10.05-2.16-3.95-3-3.55-9.45-7.11-12.93-2.11-2.06-5.26-2.73-7.49-4.66C489.79,475,489.67,469,492.26,464.81Z"/><path class="cls-4" d="M526.48,507.35c1.57-.85,3.3-1.74,5.06-1.43,3,.52,4.33,4.61,2.82,7.25s-4.9,3.73-7.92,3.38a6.74,6.74,0,0,1-4.57-2.19,3.71,3.71,0,0,1,0-4.76"/><path class="cls-9" d="M522.68,618.8l-23.17-11.16-9.79,2.13a46.59,46.59,0,0,1-7.58,7.94,45.3,45.3,0,0,1-5.9,4.13c-9-4.71-21.46-11-36.54-17.91-30.58-14-38.28-15.3-46.05-13.76-10.64,2.11-17.13,8.63-28.49,20.38A182.58,182.58,0,0,0,331.73,659l7.41,8.47c27.5-25.52,47.17-43.82,49.25-46.05a5.46,5.46,0,0,1,2.93-1.75,6.43,6.43,0,0,1,3.57.7c32,13.08,60.68,34.48,94.34,42.19,10.2,2.34,22.31,2.83,29.64-4.63,4-4,5.77-9.78,6.48-15.41A51,51,0,0,0,522.68,618.8Z"/><path class="cls-6" d="M335.34,671.86a27.91,27.91,0,0,1-9-5.31,1.82,1.82,0,0,0-1.1-.59,2,2,0,0,0-1,.44,15,15,0,0,1-7.22,2,30.22,30.22,0,0,0-7.48,1.07c-2.38.83-4.62,2.61-5.19,5.07-.09.42-.1.94.26,1.18a1.18,1.18,0,0,0,.61.15q14.42.72,28.84,1a1.82,1.82,0,0,0,1-.19c1-.67-.14-2.32.28-3.47"/><path class="cls-4" d="M399.51,561.37c5.12-3.4,18.27,8.68,20.29,10.55l-2.05,2.62-.63,4.56a25.37,25.37,0,0,0-4.77-3.5c-7.07-4-12.08-2.31-14.2-5.59C396.5,567.45,397.25,562.88,399.51,561.37Z"/><path class="cls-6" d="M495.68,535.3c5.81-4.19,15.15-3.71,20.69.44,6.08,4.56,6.77,13,7.09,16.65,1.54,17.84,4.6,44.9,8.39,79.46a155.08,155.08,0,0,0-49.71-14.14,76.45,76.45,0,0,0,5.77-18.4c1.77-10,.48-14.63.42-26.62C488.23,552.77,488.17,540.73,495.68,535.3Z"/><path class="cls-6" d="M507.76,543.46c1.86,6.69-1.29,13.26-18.77,35.71-17.64,22.64-22.91,26.84-25.76,28.2a11.2,11.2,0,0,1-1.06.44c-5.75,2.18-13.07,1.85-32.56-8.41-5.1-2.69-11.59-6.35-18.92-11.14q4.44-10.15,8.9-20.32l35.3,24.87c3.92-7.12,9.78-17.32,17.56-29.23,18.56-28.41,24.18-30,27.44-29.41C504.12,535,506.81,540.07,507.76,543.46Z"/><path class="cls-10" d="M551.4,374.67c-1-1.67-3.27-1.86-3.81-1.9-1.7-.15-2.81.4-4.5,1a38.75,38.75,0,0,1-6.81,1.84l-3.1-.3a7,7,0,0,0-2.82.93,4.14,4.14,0,0,0-1.57,1.33c-1.15,1.83.66,4.62.93,5a8.12,8.12,0,0,0,3.85,3.1c3.26-.89,5.94-1.82,7.89-2.56,10-3.76,10.41-5.95,10.45-6.61A3.54,3.54,0,0,0,551.4,374.67Z"/><path class="cls-10" d="M489.2,387.94c.17-1.95-1.49-3.45-1.89-3.81-1.27-1.14-2.49-1.37-4.22-1.89a38.67,38.67,0,0,1-6.54-2.64l-2.29-2.11a7,7,0,0,0-2.81-.95,4.22,4.22,0,0,0-2.06.11c-2,.77-2.26,4.08-2.3,4.58a8.19,8.19,0,0,0,1.21,4.8c3.14,1.25,5.83,2.12,7.84,2.71,10.23,3,11.89,1.53,12.32,1A3.49,3.49,0,0,0,489.2,387.94Z"/><path class="cls-11" d="M434.33,194.12a332,332,0,0,1,36.73-5.64,12.05,12.05,0,0,0,4.54-1,11.1,11.1,0,0,0,3.57-3.61,92.85,92.85,0,0,0,12.43-24.62c1-3.16,2.76-7.05,6.09-7,0,8.87-1.06,17.7-2.12,26.51-.47,3.9-1,7.88-2.6,11.45-2.47,5.37-7.29,9.29-12.31,12.42a77.1,77.1,0,0,1-41.21,11.62,9.94,9.94,0,0,1-5.18-1c-2-1.23-3-3.65-3.32-6a16.94,16.94,0,0,1,3.93-13.38"/><path class="cls-12" d="M466.08,153.42l1.19.27a12.6,12.6,0,0,0-7.36-4.78,20.5,20.5,0,0,0-25,25.78,13.39,13.39,0,0,0,3,5.43,12.8,12.8,0,0,0,4.18,2.85,22.54,22.54,0,0,0,20.28-.75,18.76,18.76,0,0,0,8.05-10.13C473.51,162.29,466.6,154,466.08,153.42Z"/><path class="cls-13" d="M463.2,134.36c-10.08-11.8-27.71-13.3-36.18-10.55-7.3,2.37-7.4,5.86-14.56,7.07-9.38,1.57-11.14-4.09-23.69-4.78-3.77-.2-17.67-.57-25,7.07-1.76,1.84-3.17,4.07-5.29,5.48-3.21,2.15-7.37,2-11.09,3.07-6.48,1.82-11.24,8.58-12.73,13.92-2.9,10.46,4.79,23.61,14.64,27.38,12.72,4.88,19.4-9.6,34.77-4.93,4.95,1.5,12.25,5.42,25.12,6.8.4,0,.93.1,1.59.15a55.51,55.51,0,0,0,25.73-4.32c.7-.28,1.25-.52,1.43-.6a14.4,14.4,0,0,1-2-2.84,13.75,13.75,0,0,1-1-2.59,6.93,6.93,0,0,0,3.91-3.87c.35-1.14.06-1.76.37-2.67.42-1.22,1.84-2.72,6.54-3.57,1.26.4,9.49,2.87,17-2,1.12-.74,5.51-3.59,7.07-8.85C472.37,145.11,465.31,136.83,463.2,134.36Z"/><path class="cls-12" d="M438,179.14c-.67.83-1.68,2-3,3.39-2.77,2.9-4.87,4.42-4.46,5.41.21.51,1,.8,1.73,1.05a9.61,9.61,0,0,1,1.64.5,7.54,7.54,0,0,1,1.27.84,13.56,13.56,0,0,1,1.28,1.16c4.65-4.35,7.63-7.94,7.48-8.73a3.12,3.12,0,0,0-.41-1,2,2,0,0,0-.6-.65c-1.67-.93-3.67-3.43-4.58-2.85C438.24,178.32,438.06,178.55,438,179.14Z"/><path class="cls-12" d="M489.33,234.54q4.26-5.55,8.82-10.86a4.08,4.08,0,0,1,1.66-1.35,2.69,2.69,0,0,1,3.15,1.79,5.69,5.69,0,0,1-.26,3.91,14,14,0,0,1-8.42,8.28,4.65,4.65,0,0,1-3.09.22,2.07,2.07,0,0,1-1.39-2.48"/><path class="cls-14" d="M524.05,153.86q-23.86-3.84-47.48-9a24,24,0,0,1,4.81-6.62"/><path class="cls-15" d="M470,275a63.77,63.77,0,0,0-28.64,1.14A186.52,186.52,0,0,0,463.23,303c8,8.12,8.42,7.08,14.74,13.56,14.68,15,16.08,24.53,31,44.25a202,202,0,0,0,17,19.71q3.81-2.19,7.64-4.36-5.91-12.46-12.95-25.41A507.14,507.14,0,0,0,470,275Z"/><path class="cls-16" d="M363,250.25a27.16,27.16,0,0,0-7.44,16.69,21.82,21.82,0,0,0,2.06,11.43c3.39,6.6,10.34,9.78,17.51,11.89,17.93,5.27,38.67,4.22,74.67-2.59,10.52-2,19-3.84,24.2-5a191.2,191.2,0,0,0-7.47,95.14l10,.72c3.77-27.18,8.48-46.44,12.19-59.25,4.06-14,5.17-21.95,7.38-37.81,2.07-14.84,1.4-17.06.49-18.76-6.49-12-31.27-8.12-65.61-7.94A481.11,481.11,0,0,1,363,250.25Z"/><path class="cls-17" d="M449,376.72c-.57.12-1.22,1-1.53,4.35a53.09,53.09,0,0,0-.19,9c.22,3.41.63,4.54,1.29,5.51.2.31,2.27,3.27,5.5,3.14a4,4,0,0,0,2.83-1c1.58-1.68.56-5-.19-7.43a22.25,22.25,0,0,0-1.22-3.05c-1.39-3-2.26-3.62-2.82-5.52a10,10,0,0,1-.24-4.35,14.79,14.79,0,0,1-1.92-.29C449.53,376.82,449.31,376.66,449,376.72Z"/><path class="cls-18" d="M482.09,123.31l-7.22,12.14q25.06,10.28,50.41,19.84L504,135.16a170.58,170.58,0,0,0-16.22-14.06,3.9,3.9,0,0,0-2.93-1c-1.12.25-1.78,1.39-2.3,2.42"/><path class="cls-12" d="M502.67,138.83a2.81,2.81,0,0,0-3.41-1.41,4,4,0,0,0-1.69,2,30,30,0,0,0-3.29,14.94l3.07-1.83a16,16,0,0,0,5.71-9.71A6.15,6.15,0,0,0,502.67,138.83Z"/><path class="cls-12" d="M433.34,167.11a4.56,4.56,0,0,1,4.24-4.24c2.36,0,4,2.19,4.23,4.24.25,2.37-1.42,4.89-3.68,5.15C435.56,172.56,433.12,169.81,433.34,167.11Z"/><rect class="cls-19" x="354.98" y="289.29" width="102.84" height="168.52" rx="19.48"/><rect class="cls-9" x="247.78" y="289.29" width="97.59" height="78.75" rx="5.3"/><rect class="cls-19" x="254.69" y="379.06" width="119.55" height="96.47"/><line class="cls-20" x1="300.88" y1="397.23" x2="364.85" y2="397.23"/><line class="cls-20" x1="300.88" y1="412.65" x2="364.85" y2="412.65"/><line class="cls-21" x1="264.76" y1="428.06" x2="364.85" y2="428.06"/><line class="cls-21" x1="264.76" y1="443.47" x2="364.85" y2="443.47"/><path class="cls-22" d="M293.83,305.14a26.11,26.11,0,1,0,26.11,26.11H293.83Z"/><path class="cls-22" d="M299.31,299.66v26.11h26.11A26.11,26.11,0,0,0,299.31,299.66Z"/><circle class="cls-2" cx="279.13" cy="403.21" r="10.66"/><circle class="cls-10" cx="254.69" cy="360.24" r="14.21"/><path class="cls-23" d="M254.7,344.06A15.29,15.29,0,1,0,270,359.34a15.3,15.3,0,0,0-15.28-15.28Zm9.07,12.4-10.95,11a2.35,2.35,0,0,1-3.33,0l-4.18-4.18a2.35,2.35,0,0,1,3.32-3.33l2.52,2.52,9.29-9.29a2.35,2.35,0,1,1,3.33,3.33Zm0,0"/><path class="cls-10" d="M451.9,430.1H434.39a12.26,12.26,0,0,0-12.26,12.26v16a12.26,12.26,0,0,0,12.26,12.26H451.9a12.26,12.26,0,0,0,12.26-12.26v-16A12.26,12.26,0,0,0,451.9,430.1Z"/><path class="cls-1" d="M453.11,427.29H433.17a14,14,0,0,0-14,14v18.22a14,14,0,0,0,14,14h19.94a14,14,0,0,0,14-14V441.25A14,14,0,0,0,453.11,427.29Zm2.3,22.2a3.49,3.49,0,0,1-2.15-.73L446.62,455a5.33,5.33,0,1,1-.79-.84l6.63-6.26a3.55,3.55,0,0,1-.6-1.88l-13.21-1.79a5.7,5.7,0,1,1,.17-1.34c0,.07,0,.13,0,.2l13.2,1.78a3.55,3.55,0,1,1,3.4,4.6Z"/><path class="cls-9" d="M355,308.77a19.48,19.48,0,0,1,19.48-19.48h63.88a19.48,19.48,0,0,1,19.48,19.48l-.08,9H355.44Z"/><circle class="cls-16" cx="365.93" cy="306.26" r="2.74"/><circle class="cls-24" cx="375.53" cy="306.26" r="2.74"/><circle class="cls-25" cx="385.54" cy="306.26" r="2.74"/><circle class="cls-26" cx="406.02" cy="348.99" r="17.74"/><path class="cls-10" d="M415,348.18a.93.93,0,0,1,0,1.61l-6.77,3.91-6.77,3.91a.93.93,0,0,1-1.4-.81V341.17a.93.93,0,0,1,1.4-.81l6.77,3.91Z"/><rect class="cls-10" x="385.54" y="376.71" width="36.59" height="2.53"/><rect class="cls-24" x="385.54" y="397.43" width="36.59" height="2.53"/><rect class="cls-10" x="385.54" y="403.24" width="36.59" height="2.53"/><rect class="cls-10" x="385.54" y="384.48" width="52.68" height="2.53"/><rect class="cls-10" x="385.54" y="390.59" width="59.06" height="2.53"/><path class="cls-8" d="M153,258.31l.33-9.92a1.32,1.32,0,0,0-2.63,0l-.34,9.92a1.33,1.33,0,0,0,1.32,1.32,1.35,1.35,0,0,0,1.32-1.32Z"/><path class="cls-8" d="M168.41,264.56l7.37-8.8a1.34,1.34,0,0,0,0-1.86,1.32,1.32,0,0,0-1.86,0l-7.38,8.79a1.37,1.37,0,0,0,0,1.87,1.33,1.33,0,0,0,1.87,0Z"/><path class="cls-1" d="M154,390.35a23.94,23.94,0,0,0,3.2,8.39,2.59,2.59,0,0,0,1.27,1.22,1.83,1.83,0,0,0,1.84-.67,5.12,5.12,0,0,0,.89-1.85"/><path class="cls-12" d="M231,391.14c-3.29-2.16-6.09-3.8-8-4.86-2.62-.19-4.69.17-4.87.92s1.65,2.17,4.56,3.23a138.46,138.46,0,0,0,13,14.29c3.38,3.23,6.71,6.09,9.88,8.59-2.53-.15-18.14-1.05-31.4-.59a98.09,98.09,0,0,0-16.59,1.77c-1.68.34-3.05.66-4,.89a50.5,50.5,0,0,0,1.54,5c.87,2.38,1,3.57,2,4.82a4.69,4.69,0,0,1,2.05,1.83,5.12,5.12,0,0,1,.36,4.17c12-1.43,30.77-3.83,52-7.15,2.66-.42,6.46-1.06,7.5-3.59C262.53,412.13,232.62,392.21,231,391.14Z"/><path class="cls-12" d="M264.27,695.69c-12-55.08-23.63-96.56-29-115.11-3-10.47-5.6-19.11-7.39-25L208,561c5.68,25.11,12.41,53.08,20.35,83.46,9.61,36.79,16.27,59,30.47,85.16,3.92,7.23,7.48,13,9.93,16.9l5.65-1.25C270.58,725.23,267,708.36,264.27,695.69Z"/><path class="cls-12" d="M167.9,571.81c1,27.91,2.82,57.18,5.55,87.65,2.79,31,6.33,60.64,10.38,88.74l7.93.18c.92-22.83,1.2-46.89.61-72.08-.92-39.1-3.82-75.57-7.87-109-2.39.83-4.94,1.63-7.63,2.38C173.73,570.52,170.73,571.23,167.9,571.81Z"/><path class="cls-10" d="M232.87,555.22c-7.73-25-23.3-59.33-23.3-59.33a177.18,177.18,0,0,1-9-24.73l-29.14,1.08c-2.86,14.72-5.36,30.8-7.18,48.12-1.72,16.41-2.6,31.85-2.9,46.16a123.85,123.85,0,0,0,21.84,1.68,3.82,3.82,0,0,0,3-.9,3.4,3.4,0,0,0,.66-2.39c-.11-2.51,1.45-20,3.92-45.76l2.32.14c4.82,24.09,8.44,41.71,9.05,44.27a3.45,3.45,0,0,0,1.5,2.39,3.62,3.62,0,0,0,2.49,0l24.58-6.24a3.85,3.85,0,0,0,2.1-1C233.57,557.63,233.13,556.05,232.87,555.22Z"/><path class="cls-12" d="M196.63,368.58c-7.57-12.62-27.37-11.74-35.77-.73C157,372.91,154.1,382,156.25,390a19.74,19.74,0,0,0,1.93,4.69c5.36,9.44,16.06,10.09,18,10.21a22.89,22.89,0,0,0,10.47-1.81,22.3,22.3,0,0,0,9-7C201,388.79,201.32,376.4,196.63,368.58Z"/><path class="cls-1" d="M201.23,343.11c-4.15-2.09-4.38-4.29-7.25-4.44s-3,1.35-7.18,3a12.67,12.67,0,0,1-10.22-.39c-1-.48-2-1.11-3.08-.91-2.35.45-2.67,4.05-4.39,5.87-1.44,1.52-3.65,1.58-5.63,1.82s-4.28,1.07-4.87,3.14c-.28,1-.09,2.09-.38,3.08-.91,3.2-5.71,3.28-6.84,6.4-.33.92-.27,1.94-.55,2.88C150,366.2,147,367,145,368.85a8.65,8.65,0,0,0-2.23,7.49,11.42,11.42,0,0,0,3.92,6.69c3.28,2.82,10.26,5.43,14.89,1.29,3.71-3.33,4.39-9.66.94-14.45,1,0,2.67-.12,4.65-.38,10.25-1.32,12.6-5,19.71-5.39,6.79-.34,7.15,2.92,12,1.52,6.4-1.86,9.63-8.7,10.89-11.38,1.38-2.91,2.74-5.8,1.49-7.81C209.8,344.08,206.49,345.77,201.23,343.11Z"/><path class="cls-12" d="M156.28,385c-.89-.6-3.12-2.11-5.15-1.27a4,4,0,0,0-1.66,1.44c-1.73,2.29-2,6,.19,7.8,1.42,1.17,3.43,1.28,5.28,1.2a7.3,7.3,0,0,0,3.14-.59,4.37,4.37,0,0,0,2-2.39C160.86,388.13,156.72,385.25,156.28,385Z"/><path class="cls-12" d="M174.45,399c.76,8.49.66,11.84.3,13a4,4,0,0,0-.09,2.12,4.84,4.84,0,0,0,1,1.68,31,31,0,0,0,5.35,5.56,6.73,6.73,0,0,0,4,1.55c1.87,0,1.89-2.16,4.76-4.54,2.23-1.87,3.92-2.19,3.81-3s-2-.55-4.11-1.79c-2.92-1.76-5-5.9-4.62-8.91.18-1.57-.06-3.18.2-4.74a1.6,1.6,0,0,0-.1-.94,2.27,2.27,0,0,0-1.63-1C181.07,397.49,175,398.83,174.45,399Z"/><path class="cls-22" d="M213.79,388.64A61.63,61.63,0,0,0,197.1,392a9.82,9.82,0,0,0,3.09,6.11c.28.24,4.14,3.58,8.7,2a8.67,8.67,0,0,0,4.9-4.6A8.84,8.84,0,0,0,213.79,388.64Z"/><path class="cls-10" d="M173.21,558.49q-8.84-.66-17.56-1.37a118.3,118.3,0,0,0,.29,15.64,2.62,2.62,0,0,0,.56,1.68A2.38,2.38,0,0,0,158,575c1.57.07,14.71,1,32.86,2.37a27.17,27.17,0,0,0,2.3-17.49Q183.27,559.24,173.21,558.49Z"/><path class="cls-2" d="M183.78,748.33c-.13.27-2,4.34-1.66,6.08a2,2,0,0,0,.5,1,2.59,2.59,0,0,0,1.52.5q9.3.9,18.6,1.75c.83.08,1.86.06,2.27-.66a1.72,1.72,0,0,0,.21-1c-.14-1.87-2.62-3.61-3-3.86a41.67,41.67,0,0,0-10.65-4.75Z"/><path class="cls-2" d="M268.09,745.78c-.12.26-2,4.34-1.65,6.08a1.83,1.83,0,0,0,.5,1,2.44,2.44,0,0,0,1.52.5q9.29.9,18.6,1.76c.83.08,1.86.06,2.27-.67a1.79,1.79,0,0,0,.21-1c-.14-1.86-2.62-3.6-3-3.85a41.37,41.37,0,0,0-10.65-4.75Z"/><path class="cls-27" d="M224.39,388.31a4.61,4.61,0,0,0-4.35-3.16l0-.1a10.47,10.47,0,0,0-4.48.66,6,6,0,0,0-3.25,3.06,2.11,2.11,0,0,0-.07,1.8c.44.8,1.52.92,2.43.94l6,.14c1.35,0,3-.07,3.63-1.25A2.66,2.66,0,0,0,224.39,388.31Z"/><path class="cls-8" d="M158.09,314.68c-2.49-7.05-8.91-11.08-14.29-15.75-2.87-2.48-5.54-5.28-7-8.83A18.86,18.86,0,0,1,136,278a17.25,17.25,0,0,1,18.13-12.44,16.45,16.45,0,0,1,9.82,5,16.1,16.1,0,0,1,4.32,11.53c-.1,10.34-6.42,20.84-1.28,30.9.77,1.51,3,.18,2.27-1.33-4.75-9.3,1.57-19.95,1.65-29.57a18.94,18.94,0,0,0-4.15-12.32,19.18,19.18,0,0,0-10-6.39c-8.14-2.07-17.06,2-21.3,9.17-4.5,7.61-3.19,17.45,2.38,24.11,5.41,6.49,14.77,10.3,17.71,18.68.56,1.59,3.11.9,2.55-.7Z"/><path class="cls-8" d="M165.8,315.6a70.72,70.72,0,0,0-7.3,2.09,1.34,1.34,0,0,0-.59,2.21,4.78,4.78,0,0,0,3.46,1.28c1.4,0,2.81,0,4.21-.05l4.72-.05a8.2,8.2,0,0,1,1,0s.24,0,.16,0c.26,0,.08.22,0-.06,0,0-.06-.91-.1-.93s-1.37.1-.18.07a4.62,4.62,0,0,0-1.07.35c-3,1-6,1.82-8.89,2.9-1.33.49-2.45,1.64-1.94,3.15S161.7,328,163,328a70.71,70.71,0,0,0,10.27-.79,1.32,1.32,0,0,0-.7-2.54c-2,.29-3.92.48-5.89.59-1,.06-2,.09-3,.1h-1.37c-.3,0-.83.07-1.05-.09l.48.47c.23.31-.4.34.13.25a5.13,5.13,0,0,0,.84-.27l1.87-.61,4-1.31a31.26,31.26,0,0,0,3.86-1.3,2.1,2.1,0,0,0,1.09-2.92c-.65-1.05-1.91-1.12-3-1.1l-4.17.05-4.16.05c-.81,0-1.87.14-2.47-.51l-.58,2.21a70.77,70.77,0,0,1,7.3-2.1c1.65-.37.95-2.92-.7-2.54Z"/><path class="cls-8" d="M156.75,302.55a94.47,94.47,0,0,0-3.55-9,50.28,50.28,0,0,0-4.49-8.49,3.25,3.25,0,0,0-2.92-1.6,2.62,2.62,0,0,0-2.22,2.59c-.16,2.27,1.53,4.38,3.24,5.67a9.14,9.14,0,0,0,14.47-9,4.13,4.13,0,0,0-1.87-2.83,2.87,2.87,0,0,0-3.47.44c-1,1.08-1,2.71-.9,4.08.09,1.8.26,3.59.49,5.38a68.45,68.45,0,0,0,2.34,10.88c.5,1.62,3,.93,2.55-.7a63.81,63.81,0,0,1-2.62-13.69,29.45,29.45,0,0,1-.16-3.11c0-.76.33-1.57.88-.48.7,1.39.22,3.41-.47,4.7a6.36,6.36,0,0,1-8.29,3,6.54,6.54,0,0,1-3.36-3.21,4.88,4.88,0,0,1-.21-.9.81.81,0,0,1,0-.3c-.12.17-.17,0,0,.16A15.85,15.85,0,0,1,148,289a85.86,85.86,0,0,1,6.2,14.22c.54,1.6,3.09.92,2.55-.7Z"/><path class="cls-8" d="M177.3,279.56l7.9-.18a1.32,1.32,0,1,0,0-2.63l-7.9.18a1.32,1.32,0,1,0,0,2.63Z"/><path class="cls-8" d="M126.53,291l-9.35,1.42a1.33,1.33,0,0,0-.92,1.62,1.35,1.35,0,0,0,1.62.92l9.35-1.41a1.33,1.33,0,0,0,.92-1.63,1.35,1.35,0,0,0-1.62-.92Z"/><path class="cls-8" d="M126.12,276q-5.85-1.14-11.55-2.86a1.32,1.32,0,0,0-.71,2.54,118.71,118.71,0,0,0,11.55,2.86,1.36,1.36,0,0,0,1.63-.92,1.34,1.34,0,0,0-.92-1.62Z"/><path class="cls-8" d="M133.83,264.17a59.53,59.53,0,0,1-6.22-7.81,1.32,1.32,0,1,0-2.28,1.33A64.38,64.38,0,0,0,132,266a1.33,1.33,0,0,0,1.86,0,1.36,1.36,0,0,0,0-1.87Z"/><path class="cls-10" d="M196.11,556.12q2.59,7,5.25,14a2.05,2.05,0,0,0,.77,1.16,2.13,2.13,0,0,0,1.23.13A228.58,228.58,0,0,0,236,565.93c2.15-.52,4.67-1.45,5.12-3.62a5.77,5.77,0,0,0-.27-2.66,106.4,106.4,0,0,0-4.75-13.9,2.53,2.53,0,0,0-.89-1.27,2.56,2.56,0,0,0-1.77-.06q-17.81,3.81-35.39,8.56a4,4,0,0,0-1.92.91,1.38,1.38,0,0,0-.1,1.91"/><path class="cls-28" d="M440.89,191.83c-3-6.2-12.41-6.72-13.3-6.76a22.3,22.3,0,0,0-12.5,3.63c-15.77,9.38-27.28,23.21-29.63,26.07a270.16,270.16,0,0,0-20.83,29.13c-5.55,3.66-6.42,5.64-6.1,6.77.66,2.31,6.59,2.45,23,2.84l19.64.47c.33-2.83,2.17-16.82,10-23.12a25,25,0,0,1,2.84-2c4.4-1.89,8.72.92,14.77-3.63,4.44-3.34,6.25-8.54,9.87-18.93C441.26,198.92,442.52,195.13,440.89,191.83Z"/><path class="cls-22" d="M489.68,232.42a10.68,10.68,0,0,0-6.49-.31c-7,1.78-14.41,1.76-21.56,3-3.4.59-8.28,1.32-14.27,1.83-.31-9.38-1.93-47.13-11.76-48.91a10.63,10.63,0,0,0-8,2.07c-2.62,2.21-3.19,5.62-3.5,8.28-2.21,18.75,6.61,37.37,19,51.58a6.4,6.4,0,0,0,2.42,2,6.56,6.56,0,0,0,3.72-.1,364.5,364.5,0,0,0,38.93-11.11c1.71-.59,3.61-1.37,4.27-3.06C493.28,235.61,491.7,233.26,489.68,232.42Z"/><path class="cls-12" d="M169.65,472.28c-2.24-2.8-6.47-2.85-8.16-2.89-5.7-.12-17-.71-31.89-1.32L172,429.35a12.93,12.93,0,0,1-2.19-9.14,13.64,13.64,0,0,1,1.75-4.64c.26-.4.49-.72.66-.94a80.72,80.72,0,0,0-13.32,6.52c-3.53,2.13-8.55,5.52-24.74,22.2-7.84,8.09-13.49,14.33-18,23.5-2.15,4.41-3.83,9.1-1.8,11.8,1.52,2,4.57,2.17,6.19,2.19,17,.29,42.38-8.09,45-3.64.8,1.34-.76,3.35.84,6.78.62,1.33,1.74,2.95,2.4,2.75s.33-1.36.59-3.51c.55-4.54,2.19-5.78,1.47-8.53A6.6,6.6,0,0,0,169.65,472.28Z"/><path class="cls-26" d="M201.86,467.08c-.16-.83-1.6-8.65-.92-14.47s2.21-5.16,3.29-11.15a34.56,34.56,0,0,0-2.94-21.36,31.61,31.61,0,0,0-3.7-5.61l-8.1-.9c0,.48.5,5.89-2.26,7.59s-8.76-.44-12.57-7.08l-10,3.22a10.83,10.83,0,0,1,4,4.81c1.73,4.28.29,9.61-3.61,13.58q1.33,22.37,2.68,44.72c3.6.18,7.47.2,11.58,0a118.05,118.05,0,0,0,24.94-4A85.19,85.19,0,0,1,201.86,467.08Z"/></g></svg>